<svg width="48" height="41" viewBox="0 0 48 41" fill="none" xmlns="http://www.w3.org/2000/svg">
<path d="M0.271484 5.50001C0.271484 2.73858 2.51006 0.5 5.27148 0.5H17.1788C19.9402 0.5 22.1788 2.73858 22.1788 5.5V23.2452V32.5341V35.5C22.1788 38.2614 19.9402 40.5 17.1788 40.5H14.0513H9.18983C7.09139 40.5 5.39028 38.7989 5.39028 36.7005C5.39028 34.7142 6.92013 33.0631 8.90063 32.9119L10.8758 32.7611C12.1313 32.6653 13.2875 32.0421 14.0578 31.0461L14.1314 30.9509C15.5008 29.1802 15.5056 26.7093 14.143 24.9333C13.3265 23.8691 12.0615 23.2452 10.7201 23.2452H5.27149C2.51006 23.2452 0.271484 21.0066 0.271484 18.2452V5.50001Z" fill="white"/>
<path d="M25.3643 5.50001C25.3643 2.73858 27.6028 0.5 30.3643 0.5H42.2716C45.033 0.5 47.2716 2.73858 47.2716 5.5V23.2452V32.5341V35.5C47.2716 38.2614 45.033 40.5 42.2716 40.5H39.144H34.2826C32.1842 40.5 30.4831 38.7989 30.4831 36.7005C30.4831 34.7142 32.0129 33.0631 33.9934 32.9119L35.9685 32.7611C37.2241 32.6653 38.3803 32.0421 39.1506 31.0461L39.2242 30.9509C40.5936 29.1802 40.5983 26.7093 39.2358 24.9333C38.4193 23.8691 37.1543 23.2452 35.8129 23.2452H30.3643C27.6028 23.2452 25.3643 21.0066 25.3643 18.2452V5.50001Z" fill="white"/>
</svg>
