<svg width="48" height="41" viewBox="0 0 48 41" fill="none" xmlns="http://www.w3.org/2000/svg">
<path d="M0.59668 5.50001C0.59668 2.73858 2.83526 0.5 5.59668 0.5H17.504C20.2654 0.5 22.504 2.73858 22.504 5.5V23.2452V32.5341V35.5C22.504 38.2614 20.2654 40.5 17.504 40.5H14.3764H9.51502C7.41659 40.5 5.71547 38.7989 5.71547 36.7005C5.71547 34.7142 7.24533 33.0631 9.22582 32.9119L11.201 32.7611C12.4565 32.6653 13.6127 32.0421 14.383 31.0461L14.4566 30.9509C15.826 29.1802 15.8307 26.7093 14.4682 24.9333C13.6517 23.8691 12.3867 23.2452 11.0453 23.2452H5.59668C2.83526 23.2452 0.59668 21.0066 0.59668 18.2452V5.50001Z" fill="white"/>
<path d="M25.6895 5.50001C25.6895 2.73858 27.928 0.5 30.6895 0.5H42.5968C45.3582 0.5 47.5968 2.73858 47.5968 5.5V23.2452V32.5341V35.5C47.5968 38.2614 45.3582 40.5 42.5968 40.5H39.4692H34.6078C32.5094 40.5 30.8082 38.7989 30.8082 36.7005C30.8082 34.7142 32.3381 33.0631 34.3186 32.9119L36.2937 32.7611C37.5493 32.6653 38.7054 32.0421 39.4758 31.0461L39.5494 30.9509C40.9187 29.1802 40.9235 26.7093 39.561 24.9333C38.7445 23.8691 37.4794 23.2452 36.1381 23.2452H30.6895C27.928 23.2452 25.6895 21.0066 25.6895 18.2452V5.50001Z" fill="white"/>
</svg>
