<svg width="48" height="41" viewBox="0 0 48 41" fill="none" xmlns="http://www.w3.org/2000/svg">
<path d="M0.933594 5.50001C0.933594 2.73858 3.17217 0.5 5.93359 0.5H17.8409C20.6024 0.5 22.8409 2.73858 22.8409 5.5V23.2452V32.5341V35.5C22.8409 38.2614 20.6024 40.5 17.8409 40.5H14.7134H9.85194C7.7535 40.5 6.05239 38.7989 6.05239 36.7005C6.05239 34.7142 7.58224 33.0631 9.56273 32.9119L11.5379 32.7611C12.7934 32.6653 13.9496 32.0421 14.7199 31.0461L14.7935 30.9509C16.1629 29.1802 16.1677 26.7093 14.8051 24.9333C13.9886 23.8691 12.7236 23.2452 11.3822 23.2452H5.9336C3.17217 23.2452 0.933594 21.0066 0.933594 18.2452V5.50001Z" fill="white"/>
<path d="M26.0264 5.50001C26.0264 2.73858 28.2649 0.5 31.0264 0.5H42.9337C45.6951 0.5 47.9337 2.73858 47.9337 5.5V23.2452V32.5341V35.5C47.9337 38.2614 45.6951 40.5 42.9337 40.5H39.8061H34.9447C32.8463 40.5 31.1452 38.7989 31.1452 36.7005C31.1452 34.7142 32.675 33.0631 34.6555 32.9119L36.6307 32.7611C37.8862 32.6653 39.0424 32.0421 39.8127 31.0461L39.8863 30.9509C41.2557 29.1802 41.2604 26.7093 39.8979 24.9333C39.0814 23.8691 37.8164 23.2452 36.475 23.2452H31.0264C28.2649 23.2452 26.0264 21.0066 26.0264 18.2452V5.50001Z" fill="white"/>
</svg>
